<svg width="30" height="30" fill="none" xmlns="http://www.w3.org/2000/svg"><path d="M19.873 26c-4.384 0-8.327-1.812-11.2-4.687C5.798 18.44 4 14.508 4 10.122c0-.922.41-1.748 1.05-2.311l2.502-2.382A1.5 1.5 0 0 1 8.608 5c.532 0 .999.269 1.274.679l2.541 3.553c.18.25.282.557.282.89 0 .454-.205.87-.519 1.152l-2.035 1.793c-.282.282-.519.679-.519 1.152-.006 1.127.832 2.677 2.151 3.996s2.867 2.157 3.994 2.15c.467 0 .87-.236 1.152-.518l1.799-2.03c.281-.32.69-.518 1.152-.518.332 0 .633.102.89.282l3.552 2.542a1.53 1.53 0 0 1 .256 2.33l-2.381 2.503A3.139 3.139 0 0 1 19.873 26Z" fill="#393246" stroke="#393246" stroke-width="1.5" stroke-miterlimit="10"/></svg>